<?xml version="1.0" encoding="utf-8"?>
<!-- Generator: Adobe Illustrator 23.0.1, SVG Export Plug-In . SVG Version: 6.00 Build 0)  -->
<svg version="1.1" id="Layer_1" xmlns="http://www.w3.org/2000/svg" xmlns:xlink="http://www.w3.org/1999/xlink" x="0px" y="0px"
	 viewBox="0 0 285.59 37.92" style="enable-background:new 0 0 285.59 37.92;" xml:space="preserve">
<style type="text/css">
	.st0{fill:#FFCD34;}
	.st1{fill:#FFFFFF;stroke:#FFFFFF;stroke-width:0.1;}
	.st2{fill:#7A121B;}
	.st3{stroke:#000000;stroke-width:0.1;}
	.st4{fill:#FFFFFF;stroke:#FFFFFF;stroke-width:0.1;stroke-miterlimit:10;}
	.st5{stroke:#000000;stroke-width:0.1;stroke-miterlimit:10;}
</style>
<g>
	<g>
		<path class="st2" d="M54.6,29.08L44.39,12.11h2.81V3.26H30.21v8.84h2.81l-3.9,6.48l-3.9-6.48h2.81V3.26H11.04v8.84h2.81
			L3.64,29.08H0v8.84h17.33v-8.84h-3.11l5.32-8.84l2.06,3.43h-1.98v8.84h19v-8.84h-1.98l2.06-3.43l5.32,8.84h-3.11v8.84h17.33v-8.84
			H54.6z"/>
	</g>
	<g>
		<path class="st5" d="M276.19,3.48l0.08,2.72h-0.36c-0.33-1.74-0.75-2.03-3.05-2.03v8.12c0,0.95,0.49,1.37,1.37,1.37v0.38h-4.25
			v-0.38c0.89,0,1.37-0.42,1.37-1.37V4.17c-2.29,0-2.72,0.29-3.05,2.03h-0.35l0.08-2.72H276.19z"/>
		<path class="st5" d="M262.08,3.28c-2.61,0-4.72,2.14-4.72,5.47s2.11,5.47,4.72,5.47c2.61,0,4.72-2.14,4.72-5.47
			S264.68,3.28,262.08,3.28z M262.08,13.6c-1.98,0-3.11-1.9-3.11-4.85c0-2.95,1.13-4.85,3.11-4.85c1.98,0,3.11,1.9,3.11,4.85
			C265.19,11.7,264.06,13.6,262.08,13.6z"/>
		<path class="st5" d="M284.43,12.75c-0.19-0.49-3.73-9.41-3.73-9.41h-0.36c0,0-3.13,8.18-3.51,9.14c-0.39,0.96-0.85,1.2-1.22,1.2
			v0.38h2.88v-0.38c-0.42,0-0.9-0.3-0.9-0.76c0-0.14,0.01-0.3,0.05-0.4c0.03-0.08,0.32-0.88,0.7-1.91H282
			c0.37,1.01,0.66,1.8,0.67,1.84c0.05,0.14,0.11,0.33,0.11,0.47c0,0.41-0.33,0.76-0.95,0.76v0.38h3.71v-0.38
			C285.09,13.66,284.63,13.24,284.43,12.75z M278.62,9.86c0.72-1.94,1.56-4.23,1.56-4.23s0.85,2.3,1.55,4.23H278.62z"/>
		<path class="st5" d="M246.84,11.3c-0.47,1.1-1.07,2.06-2.74,2.06c-0.36,0-1.1,0-1.68,0c-0.61,0-0.88-0.21-0.88-0.72
			c0-0.2,0-1.94,0-3.76c0.41,0,1.66,0,2.28,0c0.88,0,1.34,0.5,1.48,1.43h0.36V6.66h-0.38c-0.05,1.01-0.58,1.51-1.37,1.51
			c-0.68,0-1.98,0-2.36,0c0-1.74,0-3.36,0-3.54c0-0.39,0.25-0.47,0.57-0.47c0.33,0,1.07,0,2.03,0c1.26,0,1.7,0.52,1.98,1.7h0.36
			l-0.08-2.39h-7.6v0.39c0.89,0,1.29,0.42,1.29,1.37v7.05c0,0.95-0.41,1.37-1.29,1.37v0.38h7.8l0.68-2.74H246.84z"/>
		<path class="st5" d="M254.89,3.26l0.3,3.49h-0.39c-0.52-1.72-1.4-2.77-2.66-2.77c-0.91,0-1.43,0.61-1.43,1.43
			c0,0.93,0.69,1.48,1.54,2.06c0.85,0.57,1.43,0.96,1.7,1.15c0.79,0.55,1.54,1.53,1.54,2.66c0,1.72-1.29,2.99-2.99,2.99
			c-1.04,0-1.7-0.52-2.22-0.52c-0.29,0-0.43,0.29-0.49,0.52h-0.36l-0.44-3.51h0.39c0.64,1.8,1.59,2.85,2.91,2.85
			c0.99,0,1.73-0.68,1.73-1.78c0-1-0.53-1.48-1.15-1.92c-0.7-0.49-1.56-1.1-2.09-1.46c-0.82-0.55-1.32-1.31-1.32-2.52
			c0-1.45,0.96-2.66,2.61-2.66c0.71,0,1.51,0.47,1.95,0.47c0.33,0,0.47-0.22,0.49-0.47H254.89z"/>
		<path class="st5" d="M233.89,3.48v0.39c0.82,0,1.32,0.63,1.32,1.59c0,0.65,0,3.68,0,5.56l-5.49-7.53h-2.39v0.39
			c0.47,0,0.85,0.22,1.04,0.47c0.02,0.03,0.13,0.18,0.3,0.41c0,1.15,0,6.14,0,7.09c0,1.21-0.41,1.84-1.37,1.84v0.38h3.38v-0.38
			c-0.82,0-1.32-0.55-1.32-1.51c0-0.78,0-4.93,0-6.49c2,2.7,6.31,8.55,6.31,8.55h0.22c0,0,0-7.44,0-8.51c0-1.34,0.55-1.84,1.37-1.84
			V3.48H233.89z"/>
		<path class="st5" d="M222.17,3.48v0.39c0.82,0,1.32,0.63,1.32,1.59c0,0.65,0,3.68,0,5.56L218,3.48h-2.39v0.39
			c0.47,0,0.85,0.22,1.04,0.47c0.02,0.03,0.13,0.18,0.3,0.41c0,1.15,0,6.14,0,7.09c0,1.21-0.41,1.84-1.37,1.84v0.38h3.38v-0.38
			c-0.82,0-1.32-0.55-1.32-1.51c0-0.78,0-4.93,0-6.49c2,2.7,6.31,8.55,6.31,8.55h0.22c0,0,0-7.44,0-8.51c0-1.34,0.55-1.84,1.37-1.84
			V3.48H222.17z"/>
		<path class="st5" d="M208.01,0.44V0.05h-3.26l-4.26,11.42l-4.28-11.42h-3.32v0.39c1.4,0,1.79,0.77,1.79,2.14s0,8.32,0,8.59
			c0,1.99-0.56,2.5-1.81,2.5v0.38h4.31v-0.38c-1.21,0-1.79-0.52-1.79-2.5c0-1.97,0-8.97,0-8.97l4.45,11.88h0.41l4.53-12.1
			c0,0,0,8.84,0,9.19c0,1.99-0.45,2.5-1.7,2.5v0.38h4.94v-0.38c-1.21,0-1.67-0.52-1.67-2.5c0-0.77,0-7.63,0-8.78
			C206.33,0.79,207.18,0.44,208.01,0.44z"/>
		<path class="st5" d="M212.04,5.24c0-0.95,0.49-1.37,1.37-1.37V3.48h-4.26v0.39c0.89,0,1.37,0.42,1.37,1.37v7.05
			c0,0.95-0.49,1.37-1.37,1.37v0.38h4.26v-0.38c-0.89,0-1.37-0.42-1.37-1.37V5.24z"/>
		<path class="st5" d="M173.08,3.29c-2.61,0-4.72,2.14-4.72,5.47c0,3.33,2.11,5.47,4.72,5.47c2.6,0,4.72-2.14,4.72-5.47
			C177.8,5.44,175.69,3.29,173.08,3.29z M173.08,13.62c-1.98,0-3.11-1.9-3.11-4.85c0-2.95,1.13-4.85,3.11-4.85
			c1.98,0,3.11,1.9,3.11,4.85C176.19,11.72,175.06,13.62,173.08,13.62z"/>
		<path class="st5" d="M186.96,3.48h-7.68v0.39c0.88,0,1.29,0.42,1.29,1.37v7.05c0,0.95-0.4,1.37-1.29,1.37v0.38h4.09v-0.38
			c-0.85,0-1.35-0.41-1.35-1.37c0-0.19,0-1.74,0-3.41c0.4,0,1.59,0,2.2,0c0.88,0,1.35,0.5,1.48,1.43h0.35V6.66h-0.38
			c-0.05,1.01-0.58,1.51-1.37,1.51c-0.67,0-1.91,0-2.28,0c0-1.72,0-3.36,0-3.54c0-0.39,0.25-0.47,0.58-0.47c0.33,0,1.15,0,2.11,0
			c1.26,0,1.7,0.52,1.98,1.7h0.36L186.96,3.48z"/>
		<path class="st5" d="M151.67,3.5l0.08,2.72h-0.36c-0.33-1.74-0.75-2.03-3.05-2.03v8.12c0,0.95,0.49,1.37,1.37,1.37v0.38h-4.25
			v-0.38c0.89,0,1.37-0.42,1.37-1.37V4.18c-2.29,0-2.72,0.29-3.05,2.03h-0.36l0.08-2.72H151.67z"/>
		<path class="st5" d="M159.83,3.88V3.5h3.24v0.38c-0.47,0-1.2,0.51-1.51,1.02c-0.34,0.56-2.61,4.34-2.61,4.34v3.07
			c0,1.03,0.38,1.37,1.48,1.37v0.38h-4.47v-0.38c1.11,0,1.48-0.35,1.48-1.37V9.4c0,0-2.5-3.98-2.8-4.48
			c-0.3-0.49-0.91-1.04-1.48-1.04V3.5h4.17v0.38c-0.58,0-0.99,0.26-0.99,0.56c0,0.2,0.1,0.43,0.17,0.55
			c0.07,0.12,2.11,3.49,2.11,3.49s2.03-3.53,2.08-3.62c0.06-0.1,0.08-0.22,0.08-0.34C160.79,4.22,160.62,3.88,159.83,3.88z"/>
		<path class="st5" d="M134.82,3.26l0.3,3.49h-0.38c-0.52-1.72-1.4-2.77-2.66-2.77c-0.91,0-1.43,0.61-1.43,1.43
			c0,0.93,0.69,1.48,1.54,2.06c0.85,0.57,1.43,0.96,1.7,1.15c0.79,0.55,1.54,1.53,1.54,2.66c0,1.72-1.29,2.99-2.99,2.99
			c-1.04,0-1.7-0.52-2.23-0.52c-0.29,0-0.42,0.29-0.49,0.52h-0.36l-0.44-3.51h0.39c0.64,1.8,1.59,2.85,2.91,2.85
			c0.99,0,1.73-0.68,1.73-1.78c0-1-0.53-1.48-1.15-1.92c-0.7-0.49-1.56-1.1-2.08-1.46c-0.82-0.55-1.32-1.31-1.32-2.52
			c0-1.45,0.96-2.66,2.61-2.66c0.71,0,1.51,0.47,1.95,0.47c0.33,0,0.47-0.22,0.49-0.47H134.82z"/>
		<path class="st5" d="M140.64,5.25c0-0.95,0.49-1.37,1.37-1.37V3.5h-4.25v0.38c0.89,0,1.37,0.42,1.37,1.37v7.05
			c0,0.95-0.49,1.37-1.37,1.37v0.38h4.25v-0.38c-0.89,0-1.37-0.42-1.37-1.37V5.25z"/>
		<path class="st5" d="M116.43,11.3c-0.47,1.1-1.07,2.06-2.74,2.06c-0.36,0-1.1,0-1.68,0c-0.61,0-0.88-0.21-0.88-0.72
			c0-0.2,0-1.94,0-3.76c0.41,0,1.67,0,2.28,0c0.88,0,1.35,0.5,1.48,1.43h0.36V6.66h-0.38c-0.06,1.01-0.58,1.51-1.37,1.51
			c-0.68,0-1.98,0-2.36,0c0-1.74,0-3.36,0-3.54c0-0.39,0.25-0.47,0.58-0.47s1.07,0,2.03,0c1.26,0,1.7,0.52,1.98,1.7h0.36l-0.08-2.39
			h-7.6v0.39c0.89,0,1.29,0.42,1.29,1.37v7.05c0,0.95-0.4,1.37-1.29,1.37v0.38h7.79l0.69-2.74H116.43z"/>
		<path class="st5" d="M126.48,13.2c-0.25-0.29-2.59-3.51-3.11-4.22c1.89-0.4,2.56-1.36,2.56-2.75c0-1.65-1.24-2.74-3.49-2.74
			c-0.27,0-4.23,0-4.23,0v0.39c0.89,0,1.29,0.42,1.29,1.37v7.05c0,0.95-0.41,1.37-1.29,1.37v0.38h4.09v-0.38
			c-0.89,0-1.29-0.42-1.29-1.37v-3.1c0.28,0,0.55-0.01,0.8-0.02l3.43,4.88h2.31v-0.33C127.16,13.72,126.75,13.53,126.48,13.2z
			 M121.01,8.56V4.99c0-0.73,0.15-0.91,0.96-0.91c1.78,0,2.44,0.88,2.44,2.2c0,1.62-1.23,2.28-3.05,2.28
			C121.23,8.56,121.12,8.56,121.01,8.56z"/>
		<path class="st5" d="M94.04,5.24c0-0.95,0.48-1.37,1.37-1.37V3.48h-4.25v0.39c0.89,0,1.37,0.42,1.37,1.37v7.05
			c0,0.95-0.49,1.37-1.37,1.37v0.38h4.25v-0.38c-0.89,0-1.37-0.42-1.37-1.37V5.24z"/>
		<path class="st5" d="M101.01,3.87V3.48h-3.87v0.39c0.47,0,0.96,0.3,1.29,1.1c0.33,0.79,3.82,9.25,3.82,9.25h0.25
			c0,0,3.05-8.51,3.32-9.25c0.27-0.74,0.74-1.1,1.18-1.1V3.48H104v0.39c0.66,0,1.02,0.36,1.02,0.82c0,0.14-0.04,0.29-0.08,0.41
			c-0.06,0.16-2.22,6.23-2.22,6.23s-2.56-6.13-2.63-6.32c-0.06-0.14-0.09-0.32-0.09-0.48C99.99,4.12,100.34,3.87,101.01,3.87z"/>
		<path class="st5" d="M65.54,0.44c1.15,0,1.76,0.57,1.76,2.22c0,1.65,0,3.82,0,6.53c0,3.3,1.81,5.05,4.97,5.05
			c2.72,0,4.8-1.65,4.8-4.83c0-2.94,0-6.04,0-7.14c0-1.1,0.33-1.84,1.65-1.84V0.05h-4.17v0.39c1.18,0,1.67,0.52,1.7,1.95
			c0.03,1.43,0.11,5.16,0.11,7.38c0,2.22-1.59,3.62-3.76,3.62c-2.08,0-3.73-1.24-3.73-3.84s0-6.15,0-7.3c0-1.08,0.41-1.81,1.65-1.81
			V0.05h-4.97V0.44z"/>
		<path class="st5" d="M85.58,3.48v0.39c0.82,0,1.32,0.63,1.32,1.59c0,0.65,0,3.68,0,5.56l-5.49-7.53h-2.39v0.39
			c0.47,0,0.85,0.22,1.04,0.47c0.02,0.03,0.13,0.18,0.3,0.41c0,1.15,0,6.14,0,7.09c0,1.21-0.41,1.84-1.37,1.84v0.38h3.37v-0.38
			c-0.82,0-1.32-0.55-1.32-1.51c0-0.78,0-4.93,0-6.49c2,2.7,6.31,8.55,6.31,8.55h0.22c0,0,0-7.44,0-8.51c0-1.34,0.55-1.84,1.37-1.84
			V3.48H85.58z"/>
	</g>
	<g>
		<g>
			<g>
				<path class="st2" d="M93.89,24.95h3.92c3.92,0,6.72,2.61,6.72,6.38c0,3.78-2.78,6.39-6.72,6.39h-3.92V24.95z M97.68,35.4
					c2.83,0,4.13-1.69,4.13-4.07c0-2.38-1.3-4.07-4.13-4.07h-1.16v8.15H97.68z"/>
				<path class="st2" d="M106.9,29.72h2.53l-0.04,1.44c0.58-1.31,1.52-1.61,2.35-1.61c0.53,0,0.92,0.15,1.24,0.32l-0.81,2.31
					c-0.32-0.15-0.62-0.24-0.97-0.24c-1.15,0-1.76,0.53-1.76,2.23v3.55h-2.53V29.72z"/>
				<path class="st2" d="M114.96,26.79c0-0.92,0.75-1.58,1.62-1.58c0.86,0,1.6,0.65,1.6,1.58c0,0.94-0.73,1.59-1.6,1.59
					C115.71,28.38,114.96,27.73,114.96,26.79z M115.29,29.72h2.53v8h-2.53V29.72z"/>
				<path class="st2" d="M120.03,29.72h2.8l1.13,2.38c0.38,0.81,0.66,2.12,0.66,2.12s0.26-1.31,0.62-2.12l1.09-2.38h2.57l-4.28,8.17
					h-0.24L120.03,29.72z"/>
				<path class="st2" d="M134.9,35.78c0.92,0,1.61-0.36,2.01-0.64l1.45,1.56c-0.77,0.68-1.75,1.18-3.42,1.18
					c-2.85,0-4.69-1.73-4.69-4.19c0-2.42,1.93-4.15,4.41-4.15c2.87,0,4.43,2.14,4.24,4.94h-6.06
					C133.08,35.31,133.75,35.78,134.9,35.78z M136.34,33.02c-0.11-0.88-0.68-1.41-1.67-1.41c-1,0-1.67,0.45-1.88,1.41H136.34z"/>
				<path class="st2" d="M141.56,29.72h2.53l-0.06,1.31c0.49-0.96,1.43-1.48,2.53-1.48c1.75,0,3,1.28,3,3.55v4.62h-2.53v-4.45
					c0-0.9-0.43-1.41-1.33-1.41c-1.01,0-1.61,0.56-1.61,1.57v4.28h-2.53V29.72z"/>
				<path class="st2" d="M158.3,34.71v-2.89h-1.18v-2.1h1.18v-4.17h2.52v4.17h2.05v2.1h-2.05v2.97c0,0.81,0.26,0.97,0.66,0.97
					c0.41,0,0.71-0.22,0.88-0.34l0.96,1.76c-0.4,0.32-1.07,0.73-2.24,0.73C159.47,37.92,158.3,37.11,158.3,34.71z"/>
				<path class="st2" d="M165.18,33.73c0-2.44,1.93-4.19,4.41-4.19c2.48,0,4.39,1.74,4.39,4.19c0,2.42-1.92,4.15-4.39,4.15
					C167.11,37.88,165.18,36.16,165.18,33.73z M171.39,33.73c0-1.2-0.67-2.01-1.8-2.01c-1.13,0-1.82,0.81-1.82,2.01
					c0,1.18,0.69,2.01,1.82,2.01C170.72,35.74,171.39,34.92,171.39,33.73z"/>
				<path class="st2" d="M182.05,24.95h3.92c3.93,0,6.72,2.61,6.72,6.38c0,3.78-2.78,6.39-6.72,6.39h-3.92V24.95z M185.85,35.4
					c2.83,0,4.13-1.69,4.13-4.07c0-2.38-1.3-4.07-4.13-4.07h-1.16v8.15H185.85z"/>
				<path class="st2" d="M195.27,26.79c0-0.92,0.75-1.58,1.61-1.58c0.86,0,1.59,0.65,1.59,1.58c0,0.94-0.73,1.59-1.59,1.59
					C196.02,28.38,195.27,27.73,195.27,26.79z M195.61,29.72h2.53v8h-2.53V29.72z"/>
				<path class="st2" d="M200.58,36.36l1.48-1.31c0.55,0.53,1.24,0.84,1.99,0.84c0.82,0,1.09-0.15,1.09-0.49
					c0-0.43-0.51-0.43-1.81-0.77c-1.09-0.28-2.31-0.88-2.31-2.55c0-1.8,1.39-2.53,3.1-2.53c1.31,0,2.25,0.43,2.91,1.11l-1.35,1.45
					c-0.38-0.32-0.94-0.6-1.54-0.6c-0.58,0-0.86,0.15-0.86,0.47c0,0.45,0.51,0.51,1.59,0.75c1.16,0.27,2.63,0.81,2.63,2.5
					c0,1.47-0.77,2.67-3.28,2.67C202.37,37.88,201.28,37.19,200.58,36.36z"/>
				<path class="st2" d="M209.73,33.7c0-2.42,1.88-4.15,4.37-4.15c1.6,0,2.55,0.58,3.36,1.59l-1.8,1.47
					c-0.3-0.49-0.92-0.85-1.56-0.85c-1.14,0-1.78,0.81-1.78,1.93c0,1.16,0.64,1.99,1.78,1.99c0.81,0,1.24-0.37,1.61-0.75l1.71,1.5
					c-0.79,0.88-1.72,1.45-3.32,1.45C211.6,37.88,209.73,36.16,209.73,33.7z"/>
				<path class="st2" d="M219.43,33.73c0-2.44,1.93-4.19,4.41-4.19c2.48,0,4.39,1.74,4.39,4.19c0,2.42-1.92,4.15-4.39,4.15
					C221.36,37.88,219.43,36.16,219.43,33.73z M225.64,33.73c0-1.2-0.68-2.01-1.8-2.01c-1.13,0-1.82,0.81-1.82,2.01
					c0,1.18,0.7,2.01,1.82,2.01C224.97,35.74,225.64,34.92,225.64,33.73z"/>
				<path class="st2" d="M229.59,29.72h2.8l1.13,2.38c0.38,0.81,0.66,2.12,0.66,2.12s0.26-1.31,0.62-2.12l1.09-2.38h2.57l-4.28,8.17
					h-0.24L229.59,29.72z"/>
				<path class="st2" d="M244.46,35.78c0.92,0,1.61-0.36,2.01-0.64l1.45,1.56c-0.77,0.68-1.74,1.18-3.42,1.18
					c-2.85,0-4.69-1.73-4.69-4.19c0-2.42,1.94-4.15,4.41-4.15c2.87,0,4.43,2.14,4.24,4.94h-6.06
					C242.64,35.31,243.31,35.78,244.46,35.78z M245.9,33.02c-0.11-0.88-0.68-1.41-1.67-1.41c-0.99,0-1.67,0.45-1.88,1.41H245.9z"/>
				<path class="st2" d="M251.12,29.72h2.53l-0.04,1.44c0.58-1.31,1.52-1.61,2.35-1.61c0.52,0,0.92,0.15,1.24,0.32l-0.81,2.31
					c-0.32-0.15-0.62-0.24-0.97-0.24c-1.15,0-1.77,0.53-1.77,2.23v3.55h-2.53V29.72z"/>
			</g>
		</g>
		<g>
			<path class="st2" d="M262.25,28.39c0.28,0.11,0.52,0.27,0.72,0.47c0.2,0.2,0.36,0.42,0.48,0.66c0.15,0.31,0.23,0.65,0.23,1
				c0,0.4-0.1,0.79-0.3,1.15c-0.2,0.36-0.48,0.65-0.85,0.85c-0.36,0.2-0.74,0.3-1.14,0.3c-0.39,0-0.77-0.1-1.13-0.3
				c-0.36-0.2-0.64-0.49-0.85-0.85c-0.2-0.36-0.3-0.75-0.3-1.15c0-0.34,0.07-0.66,0.2-0.94c0.13-0.28,0.29-0.52,0.49-0.71
				c0.2-0.19,0.41-0.34,0.65-0.45c0.31-0.14,0.62-0.21,0.94-0.21C261.68,28.22,261.97,28.28,262.25,28.39z M263.86,29.4
				c-0.12-0.28-0.3-0.53-0.52-0.76c-0.23-0.23-0.51-0.43-0.84-0.58c-0.33-0.16-0.7-0.23-1.1-0.23c-0.41,0-0.8,0.09-1.17,0.27
				c-0.27,0.13-0.52,0.31-0.75,0.53c-0.23,0.23-0.41,0.5-0.56,0.83c-0.15,0.33-0.22,0.69-0.22,1.07c0,0.47,0.12,0.92,0.36,1.35
				c0.24,0.43,0.57,0.76,1,1c0.43,0.24,0.88,0.36,1.35,0.36c0.42,0,0.81-0.09,1.18-0.27c0.29-0.14,0.55-0.33,0.78-0.57
				c0.24-0.24,0.42-0.53,0.55-0.86c0.13-0.33,0.19-0.67,0.19-1.01C264.1,30.14,264.02,29.76,263.86,29.4z M261.3,30.91
				c0.17,0,0.3,0.02,0.39,0.07c0.09,0.05,0.15,0.11,0.19,0.19c0.04,0.08,0.06,0.21,0.08,0.39c0.01,0.25,0.03,0.4,0.05,0.45h0.64
				c-0.03-0.08-0.04-0.21-0.05-0.39c0-0.18-0.01-0.31-0.03-0.38c-0.03-0.12-0.07-0.22-0.12-0.3c-0.06-0.08-0.12-0.14-0.21-0.19
				c-0.08-0.05-0.19-0.08-0.33-0.11c0.16-0.02,0.27-0.04,0.33-0.08c0.12-0.06,0.22-0.15,0.29-0.26c0.07-0.12,0.11-0.25,0.11-0.4
				c0-0.15-0.03-0.29-0.1-0.41c-0.07-0.12-0.16-0.21-0.26-0.28c-0.11-0.07-0.25-0.12-0.42-0.15c-0.12-0.02-0.3-0.03-0.53-0.03h-1.07
				v2.99h0.67v-1.1H261.3z M261.66,29.53c0.1,0.03,0.18,0.08,0.24,0.15c0.06,0.07,0.09,0.16,0.09,0.26c0,0.1-0.02,0.18-0.08,0.26
				c-0.05,0.08-0.12,0.14-0.22,0.17c-0.1,0.04-0.21,0.06-0.32,0.06h-0.44v-0.95h0.44C261.46,29.48,261.55,29.5,261.66,29.53z"/>
		</g>
	</g>
</g>
</svg>
